<?xml version="1.0" encoding="UTF-8"?>
<svg width="24px" height="24px" viewBox="0 0 24 24" version="1.1" xmlns="http://www.w3.org/2000/svg" xmlns:xlink="http://www.w3.org/1999/xlink">
    <title>icon</title>
    <g id="Dektop" stroke="none" stroke-width="1" fill="none" fill-rule="evenodd">
        <g id="Home-Page-Disclaimer" transform="translate(-393.000000, -5981.000000)">
            <g id="Disclaimer" transform="translate(4.000000, 5965.000000)">
                <g id="Group-24" transform="translate(389.000000, 16.000000)">
                    <g id="icon">
                        <circle id="Oval" fill="#C37070" cx="12" cy="12" r="12"></circle>
                        <path d="M12.4444444,16.957265 C13.426284,16.957265 14.2222222,17.7378967 14.2222222,18.7008547 C14.2222222,19.6638127 13.426284,20.4444444 12.4444444,20.4444444 C11.4626049,20.4444444 10.6666667,19.6638127 10.6666667,18.7008547 C10.6666667,17.7378967 11.4626049,16.957265 12.4444444,16.957265 Z M12.4444444,5.33333333 C13.426284,5.33333333 14.2222222,6.12927156 14.2222222,7.11111111 L14.2222222,14.017094 C14.2222222,14.9989336 13.426284,15.7948718 12.4444444,15.7948718 C11.4626049,15.7948718 10.6666667,14.9989336 10.6666667,14.017094 L10.6666667,7.11111111 C10.6666667,6.12927156 11.4626049,5.33333333 12.4444444,5.33333333 Z" id="Combined-Shape" fill="#FFFFFF"></path>
                    </g>
                </g>
            </g>
        </g>
    </g>
</svg>