<?xml version="1.0" standalone="no"?><svg xmlns="http://www.w3.org/2000/svg" viewBox="0 0 1440 320"><path fill="#031898" fill-opacity="10" d="M0,320L34.3,304C68.6,288,137,256,206,229.3C274.3,203,343,181,411,181.3C480,181,549,203,617,208C685.7,213,754,203,823,208C891.4,213,960,235,1029,234.7C1097.1,235,1166,213,1234,197.3C1302.9,181,1371,171,1406,165.3L1440,160L1440,0L1405.7,0C1371.4,0,1303,0,1234,0C1165.7,0,1097,0,1029,0C960,0,891,0,823,0C754.3,0,686,0,617,0C548.6,0,480,0,411,0C342.9,0,274,0,206,0C137.1,0,69,0,34,0L0,0Z"></path></svg>